<svg width="187" height="93" viewBox="0 0 187 93" fill="none" xmlns="http://www.w3.org/2000/svg">
<g filter="url(#filter0_d)">
<path d="M91 42.5C91 65.3874 71.7812 84 48 84C24.2188 84 5 65.3874 5 42.5C5 19.6126 24.2188 1 48 1C71.7812 1 91 19.6126 91 42.5Z" stroke="#C0CDD2" stroke-width="2"/>
<path d="M24.2665 42.384V45H11.6665V28.2H23.9305V30.816H14.7865V35.184H22.8985V37.752H14.7865V42.384H24.2665ZM40.8966 27.192H43.8966V45H40.8966V27.192ZM73.3221 38.664C73.3221 38.872 73.3061 39.168 73.2741 39.552H63.2181C63.3941 40.496 63.8501 41.248 64.5861 41.808C65.3381 42.352 66.2661 42.624 67.3701 42.624C68.7781 42.624 69.9381 42.16 70.8501 41.232L72.4581 43.08C71.8821 43.768 71.1541 44.288 70.2741 44.64C69.3941 44.992 68.4021 45.168 67.2981 45.168C65.8901 45.168 64.6501 44.888 63.5781 44.328C62.5061 43.768 61.6741 42.992 61.0821 42C60.5061 40.992 60.2181 39.856 60.2181 38.592C60.2181 37.344 60.4981 36.224 61.0581 35.232C61.6341 34.224 62.4261 33.44 63.4341 32.88C64.4421 32.32 65.5781 32.04 66.8421 32.04C68.0901 32.04 69.2021 32.32 70.1781 32.88C71.1701 33.424 71.9381 34.2 72.4821 35.208C73.0421 36.2 73.3221 37.352 73.3221 38.664ZM66.8421 34.44C65.8821 34.44 65.0661 34.728 64.3941 35.304C63.7381 35.864 63.3381 36.616 63.1941 37.56H70.4661C70.3381 36.632 69.9461 35.88 69.2901 35.304C68.6341 34.728 67.8181 34.44 66.8421 34.44ZM95.5238 45.168C94.1958 45.168 93.0038 44.888 91.9478 44.328C90.8918 43.768 90.0678 42.992 89.4758 42C88.8838 40.992 88.5878 39.856 88.5878 38.592C88.5878 37.328 88.8838 36.2 89.4758 35.208C90.0678 34.216 90.8838 33.44 91.9238 32.88C92.9798 32.32 94.1798 32.04 95.5238 32.04C96.7878 32.04 97.8918 32.296 98.8358 32.808C99.7958 33.32 100.516 34.056 100.996 35.016L98.6918 36.36C98.3238 35.768 97.8598 35.328 97.2998 35.04C96.7558 34.736 96.1558 34.584 95.4998 34.584C94.3798 34.584 93.4518 34.952 92.7158 35.688C91.9798 36.408 91.6118 37.376 91.6118 38.592C91.6118 39.808 91.9718 40.784 92.6918 41.52C93.4278 42.24 94.3638 42.6 95.4998 42.6C96.1558 42.6 96.7558 42.456 97.2998 42.168C97.8598 41.864 98.3238 41.416 98.6918 40.824L100.996 42.168C100.5 43.128 99.7718 43.872 98.8118 44.4C97.8678 44.912 96.7718 45.168 95.5238 45.168ZM124.897 44.304C124.545 44.592 124.113 44.808 123.601 44.952C123.105 45.096 122.577 45.168 122.017 45.168C120.609 45.168 119.521 44.8 118.753 44.064C117.985 43.328 117.601 42.256 117.601 40.848V34.68H115.489V32.28H117.601V29.352H120.601V32.28H124.033V34.68H120.601V40.776C120.601 41.4 120.753 41.88 121.057 42.216C121.361 42.536 121.801 42.696 122.377 42.696C123.049 42.696 123.609 42.52 124.057 42.168L124.897 44.304ZM143.661 34.056C144.525 32.712 146.045 32.04 148.221 32.04V34.896C147.965 34.848 147.733 34.824 147.525 34.824C146.357 34.824 145.445 35.168 144.789 35.856C144.133 36.528 143.805 37.504 143.805 38.784V45H140.805V32.184H143.661V34.056ZM169.849 45.168C168.553 45.168 167.385 44.888 166.345 44.328C165.305 43.768 164.489 42.992 163.897 42C163.321 40.992 163.033 39.856 163.033 38.592C163.033 37.328 163.321 36.2 163.897 35.208C164.489 34.216 165.305 33.44 166.345 32.88C167.385 32.32 168.553 32.04 169.849 32.04C171.161 32.04 172.337 32.32 173.377 32.88C174.417 33.44 175.225 34.216 175.801 35.208C176.393 36.2 176.689 37.328 176.689 38.592C176.689 39.856 176.393 40.992 175.801 42C175.225 42.992 174.417 43.768 173.377 44.328C172.337 44.888 171.161 45.168 169.849 45.168ZM169.849 42.6C170.953 42.6 171.865 42.232 172.585 41.496C173.305 40.76 173.665 39.792 173.665 38.592C173.665 37.392 173.305 36.424 172.585 35.688C171.865 34.952 170.953 34.584 169.849 34.584C168.745 34.584 167.833 34.952 167.113 35.688C166.409 36.424 166.057 37.392 166.057 38.592C166.057 39.792 166.409 40.76 167.113 41.496C167.833 42.232 168.745 42.6 169.849 42.6Z" fill="#C0CDD2"/>
<path d="M84.1408 60.5965L88.2948 59.5489C89.3084 59.2933 90.2591 59.2653 91.1468 59.4649C92.0323 59.6555 92.7836 60.058 93.4005 60.6724C94.0153 61.2778 94.4413 62.0511 94.6787 62.9923C94.916 63.9335 94.9088 64.8209 94.657 65.6544C94.4029 66.4789 93.9324 67.1896 93.2455 67.7863C92.5563 68.3741 91.7049 68.7957 90.6913 69.0514L86.5374 70.099L84.1408 60.5965ZM90.2332 67.5786C90.9301 67.4029 91.5079 67.1176 91.9666 66.7228C92.4321 66.3166 92.7434 65.8338 92.9007 65.2744C93.0648 64.7036 93.0647 64.0924 92.9003 63.4408C92.736 62.7892 92.4474 62.2556 92.0346 61.8399C91.6285 61.4129 91.1254 61.1355 90.5252 61.0077C89.9319 60.8686 89.2868 60.8869 88.5899 61.0627L86.2822 61.6447L87.9255 68.1607L90.2332 67.5786ZM109.828 64.3695C108.859 64.6137 107.934 64.6258 107.05 64.4058C106.165 64.1768 105.407 63.7471 104.776 63.1169C104.143 62.4775 103.71 61.6963 103.478 60.7732C103.245 59.8501 103.256 58.9616 103.513 58.1077C103.767 57.2447 104.23 56.5069 104.904 55.8943C105.575 55.2727 106.394 54.8398 107.363 54.5956C108.331 54.3514 109.258 54.3438 110.144 54.5728C111.027 54.7929 111.784 55.218 112.415 55.8483C113.045 56.4785 113.478 57.2597 113.713 58.1919C113.948 59.124 113.938 60.017 113.681 60.871C113.425 61.7249 112.961 62.4627 112.29 63.0843C111.617 63.6969 110.796 64.1253 109.828 64.3695ZM109.438 62.822C110.071 62.6622 110.606 62.3782 111.042 61.9698C111.476 61.5524 111.773 61.0538 111.935 60.4739C112.095 59.885 112.095 59.2738 111.935 58.6404C111.775 58.0069 111.486 57.4732 111.069 57.0395C110.649 56.5967 110.151 56.2989 109.573 56.1461C108.993 55.9844 108.387 55.9833 107.753 56.1431C107.12 56.3029 106.586 56.5915 106.152 57.0089C105.716 57.4172 105.418 57.9159 105.259 58.5048C105.097 59.0846 105.096 59.6913 105.256 60.3248C105.416 60.9583 105.705 61.4964 106.125 61.9392C106.542 62.373 107.041 62.6708 107.621 62.8325C108.198 62.9853 108.804 62.9818 109.438 62.822ZM128.816 59.5806C127.857 59.8226 126.936 59.8335 126.053 59.6135C125.176 59.3822 124.422 58.9514 123.792 58.3211C123.17 57.6886 122.742 56.9062 122.507 55.9741C122.272 55.0419 122.282 54.1489 122.539 53.295C122.795 52.441 123.255 51.7089 123.92 51.0986C124.591 50.477 125.406 50.0452 126.365 49.8033C127.143 49.607 127.888 49.5635 128.599 49.673C129.31 49.7824 129.952 50.0392 130.526 50.4432L129.656 51.8032C128.781 51.2346 127.841 51.0769 126.837 51.3303C126.185 51.4946 125.638 51.7866 125.195 52.2063C124.75 52.6169 124.447 53.1122 124.285 53.692C124.123 54.2718 124.123 54.883 124.285 55.5256C124.447 56.1681 124.737 56.7063 125.154 57.14C125.572 57.5738 126.075 57.8704 126.664 58.0299C127.25 58.1804 127.87 58.1735 128.521 58.0091C129.526 57.7558 130.277 57.1668 130.775 56.2422L132.19 57.0406C131.876 57.6683 131.428 58.2001 130.845 58.6359C130.271 59.0694 129.595 59.3843 128.816 59.5806Z" fill="#C0CDD2"/>
<line x1="86.0277" y1="72.0432" x2="133.883" y2="60.5139" stroke="#C0CDD2"/>
<path d="M12 48H179" stroke="#C0CDD2"/>
</g>
<defs>
<filter id="filter0_d" x="0" y="0" width="183" height="93" filterUnits="userSpaceOnUse" color-interpolation-filters="sRGB">
<feFlood flood-opacity="0" result="BackgroundImageFix"/>
<feColorMatrix in="SourceAlpha" type="matrix" values="0 0 0 0 0 0 0 0 0 0 0 0 0 0 0 0 0 0 127 0"/>
<feOffset dy="4"/>
<feGaussianBlur stdDeviation="2"/>
<feColorMatrix type="matrix" values="0 0 0 0 0 0 0 0 0 0 0 0 0 0 0 0 0 0 0.25 0"/>
<feBlend mode="normal" in2="BackgroundImageFix" result="effect1_dropShadow"/>
<feBlend mode="normal" in="SourceGraphic" in2="effect1_dropShadow" result="shape"/>
</filter>
</defs>
</svg>
